<?xml version="1.0" encoding="UTF-8"?>
<!-- Generated by Pixelmator Pro 3.6.14 -->
<svg width="400" height="300" viewBox="0 0 400 300" xmlns="http://www.w3.org/2000/svg">
    <g id="VerdeClaro">
        <path id="Path" fill="#a4ea4a" fill-rule="evenodd" stroke="none" d="M 216.349045 167.048172 L 230.042282 167.048172 L 243.734177 167.048172 L 243.734177 180.740967 L 230.042282 180.740967 L 230.042282 225.240601 C 233.564072 221.435654 237.874176 218.065262 243.044098 215.723938 C 256.894562 209.451508 274.717926 211.481049 295.91568 227.451508 C 314.38443 241.366714 332.288177 243.637909 347.188263 241.083115 C 362.336212 238.48587 374.572052 230.848236 381.008179 224.818527 L 382.031006 223.860474 L 382.031006 181.425873 L 368.339111 181.425873 L 368.339111 167.733093 L 382.031006 167.733093 L 395.725128 167.733093 L 395.725128 167.733093 L 395.725128 300.553833 L 382.031006 300.553833 L 382.031006 300.553833 L 368.339111 300.553833 L 368.339111 286.859741 L 382.031006 286.859741 L 382.031006 240.587311 C 373.768066 246.268646 362.501465 251.655182 349.385742 253.904022 C 331.178284 257.026062 309.600861 254.049194 288.088226 237.840469 C 269.30011 223.686295 256.543945 223.889511 248.410538 227.574341 C 239.667465 231.533844 233.892349 240.531494 231.42688 248.028442 L 230.042282 252.242523 L 230.042282 286.176361 L 243.734177 286.176361 L 243.734177 299.868256 L 230.042282 299.868256 L 216.349045 299.868256 L 216.349045 299.868256 L 216.349045 167.048172 Z"/>
        <path id="path1" fill="#a4ea4a" stroke="none" d="M 204.801041 167.590164 L 204.611664 181.985962 L 176.198807 181.985962 L 176.198807 300.183105 L 161.234879 300.183105 L 161.234879 181.985962 L 132.822006 181.985962 L 132.822006 167.590164 L 204.801041 167.590164 Z"/>
        <path id="path2" fill="#a4ea4a" stroke="none" d="M 125.49704 300.750366 L 119.246254 274.422882 L 83.446114 274.422882 L 77.384697 300.750366 L 62.988892 300.750366 L 95.000587 167.590164 L 107.691551 167.590164 L 139.892838 300.750366 L 125.49704 300.750366 Z M 86.855576 260.027527 L 115.836563 260.027527 L 101.440758 197.70787 L 86.855576 260.027527 Z"/>
        <path id="path3" fill="#a4ea4a" stroke="none" d="M 72.796089 221.574554 C 72.796089 252.640045 49.687138 271.959656 19.190683 273.476013 L 19.190683 300.183105 L 4.794878 300.183105 L 4.794878 167.590164 L 15.40231 167.590164 C 45.330341 167.77977 72.796089 188.236771 72.796089 221.574554 Z M 19.190683 258.700989 C 43.625721 257.56427 58.40028 243.546341 58.40028 221.574554 C 58.40028 198.654984 41.920876 182.36496 19.190683 182.175568 L 19.190683 258.700989 Z"/>
        <path id="path4" fill="#a4ea4a" stroke="none" d="M 381.666992 20.392273 L 381.666992 34.787964 L 357.990356 34.787964 C 349.655975 34.787964 344.162231 40.28125 344.162231 46.910782 C 344.162231 52.025085 346.625488 56.192291 350.223206 59.03363 L 376.363068 79.869583 C 386.781067 88.582962 395.495117 100.895172 395.495117 114.722626 C 395.495117 137.074066 376.363068 152.795731 351.739563 152.795731 L 331.850464 152.795731 L 331.850464 138.399933 L 351.739563 138.399933 C 368.408325 138.399933 380.340454 128.360687 380.340454 114.722626 C 380.340454 106.198868 376.363068 98.621964 368.408325 92.181808 L 341.321594 70.209335 C 334.691132 64.526672 328.630157 57.518372 328.630157 46.532043 C 328.630157 31.567871 342.648102 20.392273 357.990356 20.392273 L 381.666992 20.392273 Z"/>
        <path id="path5" fill="#a4ea4a" stroke="none" d="M 305.931671 38.674225 C 300.453583 25.978088 290.895386 17.421082 278.681885 11.791931 L 284.318542 0 C 297.901001 6.282684 308.348022 17.365509 313.80603 33.620422 L 305.931671 38.674225 Z"/>
        <path id="path6" fill="#a4ea4a" stroke="none" d="M 301.00296 74.604095 C 301.00296 95.440079 290.20755 111.161743 274.106018 119.49614 L 294.941986 153.212677 L 278.842682 153.212677 L 262.173889 124.231689 C 257.247406 125.557541 252.133331 126.315277 246.639587 126.504669 L 246.639587 153.212677 L 232.813721 153.212677 L 232.813721 20.619781 L 242.28479 20.619781 C 275.242737 20.619781 301.00296 40.508789 301.00296 74.604095 Z M 286.607605 74.604095 C 286.607605 51.684296 271.832581 36.720367 246.639587 35.583862 L 246.639587 111.54071 C 271.64502 110.78299 286.607605 96.576569 286.607605 74.604095 Z"/>
        <path id="path7" fill="#a4ea4a" stroke="none" d="M 219.722321 35.204895 L 177.292648 35.204895 L 177.292648 82.559509 L 201.5383 82.559509 L 201.5383 96.955322 L 177.292648 96.955322 L 177.292648 138.816879 L 219.722321 138.816879 L 219.722321 153.212677 L 162.896835 153.212677 L 162.896835 20.619781 L 219.722321 20.619781 L 219.722321 35.204895 Z"/>
        <path id="path8" fill="#a4ea4a" stroke="none" d="M 90.536369 20.619781 C 131.829575 21.945709 150.960693 42.971161 150.960693 86.916321 C 150.960693 131.050613 131.829575 152.076187 90.536369 153.212677 L 76.140564 153.212677 L 76.140564 20.619781 L 90.536369 20.619781 Z M 90.536369 138.816879 C 121.979713 138.248505 136.564896 122.905823 136.564896 86.916321 C 136.564896 52.820999 121.979713 36.530975 90.536369 35.204895 L 90.536369 138.816879 Z"/>
        <path id="path9" fill="#a4ea4a" stroke="none" d="M 62.30463 35.204895 L 19.874832 35.204895 L 19.874832 82.559509 L 44.120384 82.559509 L 44.120384 96.955322 L 19.874832 96.955322 L 19.874832 138.816879 L 62.30463 138.816879 L 62.30463 153.212677 L 5.479022 153.212677 L 5.479022 20.619781 L 62.30463 20.619781 L 62.30463 35.204895 Z"/>
    </g>
</svg>
