<svg xmlns="http://www.w3.org/2000/svg" version="1.1" xmlns:xlink="http://www.w3.org/1999/xlink" xmlns:svgjs="http://svgjs.dev/svgjs" width="1000" height="1000"><g clip-path="url(#SvgjsClipPath1326)"><rect width="1000" height="1000" fill="#003024"></rect><g transform="matrix(0.34266133637921187,0,0,0.34266133637921187,200,276.41347801256427)"><svg xmlns="http://www.w3.org/2000/svg" version="1.1" xmlns:xlink="http://www.w3.org/1999/xlink" xmlns:svgjs="http://svgjs.dev/svgjs" width="1751" height="1305"><svg width="1751" height="1305" viewBox="0 0 1751 1305" fill="none" xmlns="http://www.w3.org/2000/svg">
<path fill-rule="evenodd" clip-rule="evenodd" d="M0 0.916016H133.664V0.916121L267.329 0.916129V134.581L133.664 134.58V568.965C168.041 531.826 210.131 498.926 260.598 476.07C395.795 414.839 569.786 434.652 776.698 590.545C956.996 726.386 1131.75 748.56 1277.21 723.62C1425.08 698.266 1544.52 623.712 1607.34 564.851L1617.34 555.486V141.267L1483.67 141.267V7.60251L1617.34 7.60253H1750.99H1751V1304.15H1617.34V1304.15L1483.67 1304.15V1170.48H1617.34V718.783C1536.68 774.246 1426.68 826.826 1298.67 848.775C1120.93 879.249 910.29 850.185 700.288 691.963C516.9 553.795 392.373 555.786 312.984 591.741C227.617 630.403 171.26 718.224 147.192 791.412L133.664 832.547V1163.79H267.329V1297.46L133.664 1297.46V1297.46H0V0.916016Z" fill="#A4EA4A"></path>
</svg></svg></g></g><defs><clipPath id="SvgjsClipPath1326"><rect width="1000" height="1000" x="0" y="0" rx="250" ry="250"></rect></clipPath></defs></svg>